<svg xmlns="http://www.w3.org/2000/svg" width="60" height="60"><path fill="none" stroke="#0045d4" stroke-linecap="round" stroke-width="2" d="M5.09 17.9l6.98-6.98m-6.98 0l6.98 6.98m38.6 16.96l6.98-6.98m-6.98 0l6.98 6.98m-34.19-4.82l15-15m-15 0l15 15"/><circle cx="23.41" cy="6.51" r="4.51" fill="none" stroke="#0045d4" stroke-linecap="round" stroke-width="2"/><circle cx="5.75" cy="32.74" r="3.75" fill="none" stroke="#0045d4" stroke-linecap="round" stroke-width="2"/><circle cx="10.89" cy="49.42" r="2.89" fill="none" stroke="#0045d4" stroke-linecap="round" stroke-width="2"/><circle cx="53.74" cy="49.06" r="2.89" fill="none" stroke="#0045d4" stroke-linecap="round" stroke-width="2"/><circle cx="39.88" cy="6.29" r="2.74" fill="none" stroke="#0045d4" stroke-linecap="round" stroke-width="2"/><circle cx="51.28" cy="14.06" r="3.01" fill="none" stroke="#0045d4" stroke-linecap="round" stroke-width="2"/><path fill="none" stroke="#0045d4" stroke-linecap="round" stroke-width="2" d="M30.92 34.95V59m4.33 0s-.35-11.13 2.74-20 11.75-16.95 11.75-16.95m1.59 17.67A20.63 20.63 0 0042 50.85 43.75 43.75 0 0040 59m-13.43 0s.36-11.13-2.8-20-12-16.88-12-16.88m-1.61 17.6a20.8 20.8 0 019.56 11.13A43 43 0 0121.79 59"/></svg>