<svg xmlns="http://www.w3.org/2000/svg" width="50" height="50"><path fill="none" stroke="#F91B24" d="M32.442 21.436a7.33 7.33 0 01-7.335 7.333 7.33 7.33 0 01-7.329-7.333c0-4.05 3.282-7.33 7.329-7.33a7.33 7.33 0 017.335 7.33zM10.891 41.743c1.408-7.407 7.223-12.955 14.201-12.955 7.059 0 12.957 5.715 14.242 13.303"/><path fill="#F91B24" d="M40.271 22.743a4.98 4.98 0 002.511-4.315 4.986 4.986 0 00-4.981-4.98 4.972 4.972 0 00-4.14 2.21l.83.557a3.977 3.977 0 013.31-1.767 3.985 3.985 0 013.981 3.98c0 2.025-1.523 3.684-3.481 3.933a8.22 8.22 0 00-.61-.03 8.68 8.68 0 00-.923.051l.107.994c.267-.029.534-.045.815-.045 4.002 0 7.458 3.244 8.218 7.713l.986-.168c-.674-3.969-3.296-7.06-6.623-8.133zm-29.987 0a4.98 4.98 0 01-2.511-4.315 4.986 4.986 0 014.981-4.98c1.666 0 3.214.826 4.14 2.21l-.83.557a3.977 3.977 0 00-3.31-1.767 3.985 3.985 0 00-3.981 3.98c0 2.025 1.523 3.684 3.481 3.933a8.22 8.22 0 01.61-.03c.318 0 .621.019.923.051l-.107.994a7.475 7.475 0 00-.815-.045c-4.002 0-7.458 3.244-8.218 7.713l-.986-.168c.675-3.969 3.297-7.06 6.623-8.133z"/></svg>